<?xml version="1.0" encoding="UTF-8" standalone="no"?>
<svg
   xmlns:dc="http://purl.org/dc/elements/1.1/"
   xmlns:cc="http://creativecommons.org/ns#"
   xmlns:rdf="http://www.w3.org/1999/02/22-rdf-syntax-ns#"
   xmlns:svg="http://www.w3.org/2000/svg"
   xmlns="http://www.w3.org/2000/svg"
   xmlns:sodipodi="http://sodipodi.sourceforge.net/DTD/sodipodi-0.dtd"
   xmlns:inkscape="http://www.inkscape.org/namespaces/inkscape"
   viewBox="0 0 1084 1924"
   version="1.1"
   id="svg136"
   sodipodi:docname="H-Scope.svg">
  <metadata
     id="metadata140">
    <rdf:RDF>
      <cc:Work
         rdf:about="">
        <dc:format>image/svg+xml</dc:format>
        <dc:type
           rdf:resource="http://purl.org/dc/dcmitype/StillImage" />
      </cc:Work>
    </rdf:RDF>
  </metadata>
  <sodipodi:namedview
     pagecolor="#ffffff"
     bordercolor="#666666"
     borderopacity="1"
     objecttolerance="10"
     gridtolerance="10"
     guidetolerance="10"
     inkscape:pageopacity="0"
     inkscape:pageshadow="2"
     inkscape:window-width="640"
     inkscape:window-height="480"
     id="namedview138" />
  <defs
     id="defs4">
    <style
       id="style2">.cls-1,.cls-2,.cls-3{stroke:#d1a970;stroke-miterlimit:10;stroke-width:4px;}.cls-2{fill:none;}.cls-3{fill:#d1a970;}.cls-4,.cls-9{font-size:84.97px;font-family:ChakraPetch-Light, Chakra Petch;font-weight:300;}.cls-4{fill:#ccc;}.cls-5{letter-spacing:-0.02em;}.cls-6{letter-spacing:-0.01em;}.cls-7{letter-spacing:-0.01em;}.cls-8{letter-spacing:0em;}.cls-9{fill:#fff;}</style>
  </defs>
  <title
     id="title6">H-Scope</title>
  <g
     id="Layer_4"
     data-name="Layer 4">
    <path
       id="rect8"
       style="stroke:#d1a970;stroke-width:4px;stroke-miterlimit:10"
       d="M 2,2 H 1082 V 1922 H 2 Z"
       class="cls-1" />
  </g>
  <g
     id="Layer_2"
     data-name="Layer 2">
    <path
       id="polygon11"
       style="fill:none;stroke:#d1a970;stroke-width:4px;stroke-miterlimit:10"
       d="m 503.32,960.81 0.09,-0.15 0.06,-0.11 0.07,0.29 v 0.01 z"
       class="cls-2" />
    <path
       class="cls-2"
       d="m 551.5,863.5 -50,-59.37 8,75.37 -71,-20 53,52 0.44,-0.64 c -0.28,1.24 -0.52,2.49 -0.71,3.76 l -0.73,-3.12 -67.17,33.71 78,13.6 -33.51,59.6 62.37,-36.29 1.39,-0.81 a 58,58 0 0 0 7.07,1.92 l -7.14,0.27 19,69 a 128.5,128.5 0 0 1 -84.25,-31.31 l -1.29,-1.12 A 129,129 0 0 1 590,800.69 v 0 z"
       transform="translate(2,2)"
       id="path13" />
    <path
       class="cls-2"
       d="m 632.34,1023.22 a 128.45,128.45 0 0 1 -81.84,29.28 l 17.26,-70.35 a 59.86,59.86 0 0 0 8,-2.94 v 0 z"
       transform="translate(2,2)"
       id="path15" />
    <path
       class="cls-2"
       d="M 659.85,855 590,877.78 a 57.39,57.39 0 0 0 -4.56,-3.5 L 590,800.69 A 129.33,129.33 0 0 1 659.85,855 Z"
       transform="translate(2,2)"
       id="path17" />
    <path
       id="polygon19"
       style="fill:none;stroke:#d1a970;stroke-width:4px;stroke-miterlimit:10"
       d="m 592.03,802.68 v 0.01 z"
       class="cls-2" />
    <path
       class="cls-2"
       d="m 676.88,949.5 a 129,129 0 0 1 -44.54,73.72 L 600.7,958.5 a 59.37,59.37 0 0 0 5.18,-9 z"
       transform="translate(2,2)"
       id="path21" />
    <path
       class="cls-2"
       d="m 679.5,923.5 a 129.54,129.54 0 0 1 -2.62,26 L 610.5,913 c -0.29,-1.59 -0.64,-3.16 -1.06,-4.7 L 659.85,855 a 128.4,128.4 0 0 1 19.65,68.5 z"
       transform="translate(2,2)"
       id="path23" />
    <path
       id="circle25"
       style="fill:#d1a970;stroke:#d1a970;stroke-width:4px;stroke-miterlimit:10"
       d="M 613.5,602 A 60.5,60.5 0 0 1 553,662.5 60.5,60.5 0 0 1 492.5,602 60.5,60.5 0 0 1 553,541.5 60.5,60.5 0 0 1 613.5,602 Z"
       class="cls-3" />
    <path
       id="circle27"
       style="fill:none;stroke:#d1a970;stroke-width:4px;stroke-miterlimit:10"
       d="M 838.5,702 A 60.5,60.5 0 0 1 778,762.5 60.5,60.5 0 0 1 717.5,702 60.5,60.5 0 0 1 778,641.5 60.5,60.5 0 0 1 838.5,702 Z"
       class="cls-2" />
    <path
       id="circle29"
       style="fill:none;stroke:#d1a970;stroke-width:4px;stroke-miterlimit:10"
       d="M 931.5,925 A 60.5,60.5 0 0 1 871,985.5 60.5,60.5 0 0 1 810.5,925 60.5,60.5 0 0 1 871,864.5 60.5,60.5 0 0 1 931.5,925 Z"
       class="cls-2" />
    <path
       id="circle31"
       style="fill:none;stroke:#d1a970;stroke-width:4px;stroke-miterlimit:10"
       d="M 838.5,1148 A 60.5,60.5 0 0 1 778,1208.5 60.5,60.5 0 0 1 717.5,1148 60.5,60.5 0 0 1 778,1087.5 60.5,60.5 0 0 1 838.5,1148 Z"
       class="cls-2" />
    <path
       id="circle33"
       style="fill:none;stroke:#d1a970;stroke-width:4px;stroke-miterlimit:10"
       d="M 612.5,1249 A 60.5,60.5 0 0 1 552,1309.5 60.5,60.5 0 0 1 491.5,1249 60.5,60.5 0 0 1 552,1188.5 60.5,60.5 0 0 1 612.5,1249 Z"
       class="cls-2" />
    <path
       id="circle35"
       style="fill:#d1a970;stroke:#d1a970;stroke-width:4px;stroke-miterlimit:10"
       d="M 387.5,1154 A 60.5,60.5 0 0 1 327,1214.5 60.5,60.5 0 0 1 266.5,1154 60.5,60.5 0 0 1 327,1093.5 60.5,60.5 0 0 1 387.5,1154 Z"
       class="cls-3" />
    <path
       id="circle37"
       style="fill:#d1a970;stroke:#d1a970;stroke-width:4px;stroke-miterlimit:10"
       d="M 291.5,925 A 60.5,60.5 0 0 1 231,985.5 60.5,60.5 0 0 1 170.5,925 60.5,60.5 0 0 1 231,864.5 60.5,60.5 0 0 1 291.5,925 Z"
       class="cls-3" />
    <path
       id="circle39"
       style="fill:#d1a970;stroke:#d1a970;stroke-width:4px;stroke-miterlimit:10"
       d="M 387.5,702 A 60.5,60.5 0 0 1 327,762.5 60.5,60.5 0 0 1 266.5,702 60.5,60.5 0 0 1 327,641.5 60.5,60.5 0 0 1 387.5,702 Z"
       class="cls-3" />
    <path
       id="polygon41"
       style="fill:none;stroke:#d1a970;stroke-width:4px;stroke-miterlimit:10"
       d="m 503.32,960.81 0.09,-0.15 0.06,-0.11 0.07,0.29 v 0.01 z"
       class="cls-2" />
    <path
       class="cls-2"
       d="M 871.79,862.57 A 311.4,311.4 0 0 0 819.86,741.67 325,325 0 0 0 732.62,657.84 331,331 0 0 0 610.79,609.29 340.59,340.59 0 0 0 491.16,608.94 330.93,330.93 0 0 0 368,657.44 a 324.75,324.75 0 0 0 -87.42,83.62 310.8,310.8 0 0 0 3.42,366.51 325.29,325.29 0 0 0 88.57,81.88 331.06,331.06 0 0 0 118.13,45.55 340.08,340.08 0 0 0 118.6,0 330.75,330.75 0 0 0 122.14,-48 324.86,324.86 0 0 0 87.56,-83.52 311.16,311.16 0 0 0 52.76,-240.91 z M 605.88,949.5 a 59.37,59.37 0 0 1 -5.18,9 l 31.64,64.72 -56.56,-44 v 0 a 59.86,59.86 0 0 1 -8,2.94 l -17.28,70.34 -19,-69 7.14,-0.27 a 58,58 0 0 1 -7.07,-1.92 l -1.39,0.81 -62.37,36.29 33.51,-59.6 -78,-13.6 67.18,-33.71 0.73,3.12 c 0.19,-1.27 0.43,-2.52 0.71,-3.76 l -0.44,0.64 -53,-52 71,20 -8,-75.37 50,59.37 38.5,-62.81 -4.56,73.59 a 57.39,57.39 0 0 1 4.56,3.5 L 659.85,855 609.44,908.3 c 0.42,1.54 0.77,3.11 1.06,4.7 l 66.38,36.5 z"
       transform="translate(2,2)"
       id="path43" />
    <path
       class="cls-2"
       d="m 501.54,958.84 -0.13,-0.18 0.06,-0.11 z"
       transform="translate(2,2)"
       id="path45" />
    <path
       class="cls-2"
       d="M 491.94,910.86"
       transform="translate(2,2)"
       id="path47" />
    <path
       class="cls-2"
       d="M 512.87,880.23"
       transform="translate(2,2)"
       id="path49" />
    <path
       id="polygon51"
       style="fill:none;stroke:#d1a970;stroke-width:4px;stroke-miterlimit:10"
       d="m 503.32,960.81 0.09,-0.15 0.06,-0.11 0.07,0.29 v 0.01 z"
       class="cls-2" />
    <path
       id="polyline53"
       style="fill:none;stroke:#d1a970;stroke-width:4px;stroke-miterlimit:10"
       d="m 464.5,1023.5 2.46,-1.43 2.85,-1.66 -1.56,2.78"
       class="cls-2" />
    <path
       class="cls-2"
       d="M 590.5,881.5"
       transform="translate(2,2)"
       id="path55" />
    <path
       class="cls-2"
       d="M 609.44,908.3"
       transform="translate(2,2)"
       id="path57" />
    <path
       class="cls-2"
       d="m 600.7,958.5 31.64,64.72 -56.56,-44 v 0 a 59.86,59.86 0 0 1 -8,2.94 l -17.28,70.34 -19,-69 7.14,-0.27 a 58,58 0 0 1 -7.07,-1.92 l -1.39,0.81 -62.37,36.29 33.51,-59.6 h 0.22 v 0 l -0.07,-0.29 -0.06,0.11 -0.09,0.15 -78,-13.6 67.18,-33.68 0.73,3.12 c 0.19,-1.27 0.43,-2.52 0.71,-3.76 l -0.44,0.64 -53,-52 71,20 -8,-75.37 50,59.37 38.5,-62.81 -4.56,73.59 a 57.39,57.39 0 0 1 4.56,3.5 L 659.85,855 609.44,908.3 c 0.42,1.54 0.77,3.11 1.06,4.7 l 66.38,36.5 h -71 a 59.37,59.37 0 0 1 -5.18,9 z"
       transform="translate(2,2)"
       id="path59" />
    <path
       id="polygon61"
       style="fill:none;stroke:#d1a970;stroke-width:4px;stroke-miterlimit:10"
       d="m 592.02,802.69 h 0.01 L 553.5,865.5 Z"
       class="cls-2" />
    <path
       class="cls-2"
       d="m 609,914.28 a 56.77,56.77 0 0 0 -9.48,-22.06 59.25,59.25 0 0 0 -15.91,-15.29 60.47,60.47 0 0 0 -22.23,-8.86 62.24,62.24 0 0 0 -11.09,-1 61.09,61.09 0 0 0 -10.73,0.94 60.19,60.19 0 0 0 -22.47,8.85 59,59 0 0 0 -15.95,15.25 56.52,56.52 0 0 0 -10.6,33 56.11,56.11 0 0 0 1.12,11.22 56.89,56.89 0 0 0 10.05,22.67 59.39,59.39 0 0 0 16.16,14.94 60.4,60.4 0 0 0 21.56,8.3 62.09,62.09 0 0 0 21.64,0 60.22,60.22 0 0 0 22.28,-8.77 59.11,59.11 0 0 0 16,-15.22 56.78,56.78 0 0 0 9.63,-44 z"
       transform="translate(2,2)"
       id="path63" />
  </g>
  <g
     id="Layer_3"
     data-name="Layer 3">
    <path
       class="cls-1"
       d="m 311.2,1209.73 a 60,60 0 1 0 0,-117.46 60,60 0 0 1 0,117.46 z"
       transform="translate(2,2)"
       id="path66" />
    <path
       class="cls-3"
       d="m 770.19,754.77 a 58.35,58.35 0 1 0 0,-114.24 58.36,58.36 0 0 1 0,114.24 z"
       transform="translate(2,2)"
       id="path68" />
    <path
       class="cls-1"
       d="m 333,754.81 a 56.44,56.44 0 1 1 0,-110.49 56.44,56.44 0 0 0 0,110.49 z"
       transform="translate(2,2)"
       id="path70" />
    <path
       class="cls-3"
       d="m 783.8,1200.7 a 55.44,55.44 0 1 1 0,-108.53 55.44,55.44 0 0 0 0,108.53 z"
       transform="translate(2,2)"
       id="path72" />
    <path
       class="cls-3"
       d="m 550,1186 v 121 c -41.11,-5.59 -66.18,-43.28 -59,-75 5.48,-24.2 29.48,-43.75 59,-46 z"
       transform="translate(2,2)"
       id="path74" />
    <path
       class="cls-1"
       d="m 551,541 v 121 c -41.11,-5.59 -66.18,-43.28 -59,-75 5.48,-24.2 29.48,-43.75 59,-46 z"
       transform="translate(2,2)"
       id="path76" />
    <path
       id="line78"
       style="fill:none;stroke:#d1a970;stroke-width:4px;stroke-miterlimit:10"
       d="m 380,754 19,18"
       class="cls-2" />
    <path
       id="line80"
       style="fill:none;stroke:#d1a970;stroke-width:4px;stroke-miterlimit:10"
       d="m 411,783 31,30"
       class="cls-2" />
    <path
       id="line82"
       style="fill:none;stroke:#d1a970;stroke-width:4px;stroke-miterlimit:10"
       d="m 552,677 v 46"
       class="cls-2" />
    <path
       id="line84"
       style="fill:none;stroke:#d1a970;stroke-width:4px;stroke-miterlimit:10"
       d="m 552,744 v 31"
       class="cls-2" />
    <path
       id="line86"
       style="fill:none;stroke:#d1a970;stroke-width:4px;stroke-miterlimit:10"
       d="m 725,753 -27,26"
       class="cls-2" />
    <path
       id="line88"
       style="fill:none;stroke:#d1a970;stroke-width:4px;stroke-miterlimit:10"
       d="m 686,790 -34,30"
       class="cls-2" />
    <path
       id="line90"
       style="fill:none;stroke:#d1a970;stroke-width:4px;stroke-miterlimit:10"
       d="m 699,927 47,-2"
       class="cls-2" />
    <path
       id="line92"
       style="fill:none;stroke:#d1a970;stroke-width:4px;stroke-miterlimit:10"
       d="m 769,927 30,-1"
       class="cls-2" />
    <path
       id="line94"
       style="fill:none;stroke:#d1a970;stroke-width:4px;stroke-miterlimit:10"
       d="m 307,929 47,-4"
       class="cls-2" />
    <path
       id="line96"
       style="fill:none;stroke:#d1a970;stroke-width:4px;stroke-miterlimit:10"
       d="m 376,929 34,-2"
       class="cls-2" />
    <path
       id="line98"
       style="fill:none;stroke:#d1a970;stroke-width:4px;stroke-miterlimit:10"
       d="m 434,1015 -35,39"
       class="cls-2" />
    <path
       id="line100"
       style="fill:none;stroke:#d1a970;stroke-width:4px;stroke-miterlimit:10"
       d="m 390,1070 -25,27"
       class="cls-2" />
    <path
       id="line102"
       style="fill:none;stroke:#d1a970;stroke-width:4px;stroke-miterlimit:10"
       d="m 552,1072 1,55"
       class="cls-2" />
    <path
       id="line104"
       style="fill:none;stroke:#d1a970;stroke-width:4px;stroke-miterlimit:10"
       d="m 553,1145 v 28"
       class="cls-2" />
    <path
       id="line106"
       style="fill:none;stroke:#d1a970;stroke-width:4px;stroke-miterlimit:10"
       d="m 662,1011 36,39"
       class="cls-2" />
    <path
       id="line108"
       style="fill:none;stroke:#d1a970;stroke-width:4px;stroke-miterlimit:10"
       d="m 711,1063 18,24"
       class="cls-2" />
  </g>
  <g
     id="Layer_5"
     data-name="Layer 5">
    <g
       aria-label="Created By QiMind"
       transform="translate(209.74,1655.68)"
       id="text121"
       style="font-weight:300;font-size:84.97px;font-family:ChakraPetch-Light, 'Chakra Petch';fill:#cccccc"
       class="cls-4">
      <path
         d="m 54.724332,-57.172198 v 8.837212 q -4.231905,-3.94148 -9.044658,-5.891475 -4.771265,-1.949995 -10.164869,-1.949995 -10.62125,0 -16.263789,6.513814 -5.642539,6.472324 -5.642539,18.753144 0,12.239332 5.642539,18.753145 5.642539,6.4723246 16.263789,6.4723246 5.393604,0 10.164869,-1.9499951 4.812753,-1.9499952 9.044658,-5.8914745 v 8.7542333 q -4.397862,2.9872266 -9.335083,4.48083989 -4.895733,1.49361331 -10.372315,1.49361331 -14.064859,0 -22.155264,-8.5882765 -8.0904053,-8.629766 -8.0904053,-23.52441 0,-14.936133 8.0904053,-23.524409 8.090405,-8.629766 22.155264,-8.629766 5.559561,0 10.455293,1.493614 4.937222,1.452124 9.252105,4.397861 z"
         style="font-weight:300;font-size:84.97px;font-family:ChakraPetch-Light, 'Chakra Petch';fill:#cccccc"
         id="path173" />
      <path
         d="m 87.863956,-39.331817 q -1.286167,-0.746807 -2.82127,-1.078721 -1.493613,-0.373403 -3.31914,-0.373403 -6.472325,0 -9.957422,4.231904 -3.443609,4.190415 -3.443609,12.073375 V 0 h -7.675513 v -46.467969 h 7.675513 v 7.219131 q 2.406377,-4.231905 6.264878,-6.264878 3.858501,-2.074463 9.376573,-2.074463 0.788296,0 1.742548,0.124467 0.954253,0.08298 2.115953,0.290425 z"
         style="letter-spacing:-0.02em"
         id="path175" />
      <path
         d="m 130.59413,-25.142491 v 3.734034 H 95.49422 q 0.497871,7.882959 4.72978,12.0318846 4.27339,4.1074366 11.86592,4.1074366 4.39786,0 8.5053,-1.0787207 4.14893,-1.0787208 8.21487,-3.2361622 v 7.219131 q -4.10743,1.74254882 -8.42231,2.65531251 -4.31489,0.91276369 -8.75424,0.91276369 -11.11912,0 -17.632933,-6.4723243 -6.472324,-6.4723242 -6.472324,-17.5084672 0,-11.409546 6.14041,-18.089317 6.181899,-6.721259 16.637197,-6.721259 9.37657,0 14.81166,6.057431 5.47658,6.015943 5.47658,16.388257 z m -7.63402,-2.24042 q -0.083,-6.264878 -3.52659,-9.998911 -3.40212,-3.734033 -9.04466,-3.734033 -6.38934,0 -10.24784,3.609565 -3.817015,3.609566 -4.397864,10.164869 z"
         id="path177" />
      <path
         d="m 158.95546,-23.358452 q -9.2521,0 -12.82018,2.115952 -3.56808,2.115952 -3.56808,7.219131 0,4.065947 2.65532,6.472324 2.6968,2.3648877 7.30211,2.3648877 6.34785,0 10.16486,-4.4808399 3.85851,-4.5223288 3.85851,-11.9903958 v -1.701059 z m 15.22656,-3.153184 V 0 H 166.548 v -7.0531739 q -2.61383,4.2319043 -6.51382,6.26487799 -3.89999,1.99148441 -9.54253,1.99148441 -7.13615,0 -11.36805,-3.9829688 -4.19042,-4.0244581 -4.19042,-10.7457177 0,-7.84147 5.22765,-11.824439 5.26913,-3.982969 15.68294,-3.982969 H 166.548 v -0.746806 q 0,-5.269136 -3.4851,-8.131895 -3.44361,-2.904248 -9.70849,-2.904248 -3.98297,0 -7.75849,0.954253 -3.77552,0.954253 -7.26062,2.862759 v -7.053174 q 4.19041,-1.618081 8.13189,-2.406377 3.94148,-0.829785 7.67552,-0.829785 10.08189,0 15.0606,5.227646 4.97871,5.227647 4.97871,15.848897 z"
         style="letter-spacing:-0.01em"
         id="path179" />
      <path
         d="m 190.67847,-59.661554 v 13.193585 h 15.72443 v 5.932964 h -15.72443 v 25.225469 q 0,5.684028 1.5351,7.3021091 1.57659,1.6180811 6.34786,1.6180811 h 7.84147 V 0 h -7.84147 q -8.83722,0 -12.19785,-3.2776514 -3.36063,-3.3191407 -3.36063,-12.0318846 v -25.225469 h -5.60105 v -5.932964 h 5.60105 v -13.193585 z"
         style="letter-spacing:-0.01em"
         id="path181" />
      <path
         d="m 254.05414,-25.142491 v 3.734034 h -35.09991 q 0.49787,7.882959 4.72977,12.0318846 4.2734,4.1074366 11.86593,4.1074366 4.39786,0 8.5053,-1.0787207 4.14892,-1.0787208 8.21487,-3.2361622 v 7.219131 q -4.10744,1.74254882 -8.42232,2.65531251 -4.31488,0.91276369 -8.75423,0.91276369 -11.11912,0 -17.63294,-6.4723243 -6.47232,-6.4723242 -6.47232,-17.5084672 0,-11.409546 6.14041,-18.089317 6.1819,-6.721259 16.63719,-6.721259 9.37657,0 14.81167,6.057431 5.47658,6.015943 5.47658,16.388257 z m -7.63402,-2.24042 q -0.083,-6.264878 -3.52659,-9.998911 -3.40212,-3.734033 -9.04466,-3.734033 -6.38935,0 -10.24785,3.609565 -3.81701,3.609566 -4.39786,10.164869 z"
         style="letter-spacing:0em"
         id="path183" />
      <path
         d="m 297.16148,-39.414795 v -25.142491 h 7.63402 V 0 h -7.63402 v -6.9701954 q -2.40638,4.1489258 -6.09892,6.18189949 -3.65106,1.99148441 -8.79572,1.99148441 -8.42232,0 -13.73295,-6.7212599 -5.26913,-6.7212596 -5.26913,-17.6744236 0,-10.953165 5.26913,-17.674425 5.31063,-6.721259 13.73295,-6.721259 5.14466,0 8.79572,2.032973 3.69254,1.991485 6.09892,6.140411 z m -26.01377,16.2223 q 0,8.422319 3.44361,13.235073 3.4851,4.7712647 9.54253,4.7712647 6.05743,0 9.54253,-4.7712647 3.4851,-4.812754 3.4851,-13.235073 0,-8.42232 -3.4851,-13.193585 -3.4851,-4.812754 -9.54253,-4.812754 -6.05743,0 -9.54253,4.812754 -3.44361,4.771265 -3.44361,13.193585 z"
         style="letter-spacing:0em"
         id="path185" />
      <path
         d="m 356.24219,-29.581841 v 22.6946241 h 13.44252 q 6.76275,0 9.99891,-2.7797803 3.27765,-2.8212698 3.27765,-8.5882768 0,-5.808496 -3.27765,-8.546787 -3.23616,-2.77978 -9.99891,-2.77978 z m 0,-25.474405 v 18.670166 h 12.40529 q 6.14041,0 9.12763,-2.281909 3.02872,-2.323398 3.02872,-7.053174 0,-4.688286 -3.02872,-7.011684 -2.98722,-2.323399 -9.12763,-2.323399 z m -8.38083,-6.887217 h 21.40846 q 9.58402,0 14.77017,3.982969 5.18616,3.982969 5.18616,11.326568 0,5.684028 -2.65531,9.044658 -2.65532,3.36063 -7.79998,4.190415 6.1819,1.327656 9.58402,5.559561 3.4436,4.190415 3.4436,10.496782 0,8.2978517 -5.64254,12.8201808 Q 380.51341,0 370.0996,0 h -22.23824 z"
         style="letter-spacing:0em"
         id="path187" />
      <path
         d="m 425.15584,4.3148829 q -3.23616,8.2978521 -6.30636,10.8286961 -3.07021,2.530845 -8.21488,2.530845 h -6.09892 v -6.389346 h 4.48084 q 3.15319,0 4.89573,-1.493613 1.74255,-1.4936133 3.85851,-7.0531739 L 419.1399,-0.74680665 400.34527,-46.467969 h 8.0904 l 14.52124,36.34459 14.52124,-36.34459 h 8.09041 z"
         style="letter-spacing:0em"
         id="path189" />
      <path
         d="m 508.59073,-56.259434 q -9.12763,0 -14.52124,6.804238 -5.35211,6.804238 -5.35211,18.545698 0,11.699971 5.35211,18.50421 5.39361,6.8042381 14.52124,6.8042381 9.12764,0 14.43827,-6.8042381 5.35211,-6.804239 5.35211,-18.50421 0,-11.74146 -5.35211,-18.545698 -5.31063,-6.804238 -14.43827,-6.804238 z m 11.74146,55.139224 11.03615,12.073374 h -10.12338 l -9.16913,-9.9159325 q -1.36914,0.082978 -2.11595,0.1244677 -0.70532,0.041489 -1.36915,0.041489 -13.06911,0 -20.91058,-8.7127443 -7.79998,-8.7542332 -7.79998,-23.3999422 0,-14.687197 7.79998,-23.399941 7.84147,-8.754234 20.91058,-8.754234 13.02763,0 20.82761,8.754234 7.79998,8.712744 7.79998,23.399941 0,10.787208 -4.35637,18.46272 -4.31488,7.6755133 -12.52976,11.326568 z"
         style="letter-spacing:0em"
         id="path191" />
      <path
         d="m 549.99701,-46.467969 h 7.63402 V 0 h -7.63402 z m 0,-18.089317 h 7.63402 v 9.666997 h -7.63402 z"
         style="letter-spacing:0em"
         id="path193" />
      <path
         d="m 573.93631,-61.943463 h 12.48827 l 15.8074,42.153087 15.89039,-42.153087 h 12.48827 V 0 h -8.17339 v -54.392418 l -15.97336,42.485001 h -8.42232 L 582.06821,-54.392418 V 0 h -8.1319 z"
         style="letter-spacing:0em"
         id="path195" />
      <path
         d="m 646.91592,-46.467969 h 7.63402 V 0 h -7.63402 z m 0,-18.089317 h 7.63402 v 9.666997 h -7.63402 z"
         style="letter-spacing:0em"
         id="path197" />
      <path
         d="M 709.14981,-28.046739 V 0 h -7.63402 v -27.797803 q 0,-6.596792 -2.57234,-9.874444 -2.57233,-3.277651 -7.717,-3.277651 -6.1819,0 -9.74997,3.941479 -3.56808,3.94148 -3.56808,10.745718 V 0 h -7.67551 v -46.467969 h 7.67551 v 7.219131 q 2.73829,-4.190416 6.43083,-6.264878 3.73404,-2.074463 8.58828,-2.074463 8.00743,0 12.11486,4.978711 4.10744,4.937221 4.10744,14.562729 z"
         style="letter-spacing:0em"
         id="path199" />
      <path
         d="m 754.95395,-39.414795 v -25.142491 h 7.63403 V 0 h -7.63403 v -6.9701954 q -2.40637,4.1489258 -6.09892,6.18189949 -3.65105,1.99148441 -8.79572,1.99148441 -8.42232,0 -13.73295,-6.7212599 -5.26913,-6.7212596 -5.26913,-17.6744236 0,-10.953165 5.26913,-17.674425 5.31063,-6.721259 13.73295,-6.721259 5.14467,0 8.79572,2.032973 3.69255,1.991485 6.09892,6.140411 z m -26.01376,16.2223 q 0,8.422319 3.44361,13.235073 3.48509,4.7712647 9.54253,4.7712647 6.05743,0 9.54252,-4.7712647 3.4851,-4.812754 3.4851,-13.235073 0,-8.42232 -3.4851,-13.193585 -3.48509,-4.812754 -9.54252,-4.812754 -6.05744,0 -9.54253,4.812754 -3.44361,4.771265 -3.44361,13.193585 z"
         style="letter-spacing:0em"
         id="path201" />
    </g>
    </svg>